<svg width="514" height="808" viewBox="0 0 514 808" fill="none" xmlns="http://www.w3.org/2000/svg">
<g opacity="0.4">
<path d="M828.5 509.5C828.5 591.733 783.556 666.222 710.813 720.17C638.069 774.118 537.551 807.5 426.5 807.5C315.449 807.5 214.931 774.118 142.187 720.17C69.4436 666.222 24.5 591.733 24.5 509.5C24.5 427.267 69.4436 352.778 142.187 298.83C214.931 244.882 315.449 211.5 426.5 211.5C537.551 211.5 638.069 244.882 710.813 298.83C783.556 352.778 828.5 427.267 828.5 509.5Z" stroke="#CED7E2"/>
<path d="M828.5 423C828.5 614.3 648.591 769.5 426.5 769.5C204.409 769.5 24.5 614.3 24.5 423C24.5 231.7 204.409 76.5 426.5 76.5C648.591 76.5 828.5 231.7 828.5 423Z" stroke="#CED7E2"/>
<path d="M804.5 347C804.5 538.3 624.591 693.5 402.5 693.5C180.409 693.5 0.5 538.3 0.5 347C0.5 155.7 180.409 0.5 402.5 0.5C624.591 0.5 804.5 155.7 804.5 347Z" stroke="#CED7E2"/>
</g>
</svg>
