<svg width="87" height="80" viewBox="0 0 87 80" fill="none" xmlns="http://www.w3.org/2000/svg">
<g id="JS">
<path id="Vector" d="M86.9995 0H0.845703V80H86.9995V0Z" fill="#F5DE19"/>
<path id="Vector_2" d="M58.7201 62.4999C59.4541 63.8845 60.5946 65.0483 62.01 65.8571C63.4254 66.6659 65.0582 67.0868 66.7201 67.0714C70.0739 67.0714 72.2185 65.5142 72.2185 63.3571C72.2185 60.7856 70.0155 59.8656 66.3231 58.3656L64.2985 57.5599C58.4524 55.2485 54.5755 52.3542 54.5755 46.2342C54.5755 40.5971 59.1908 36.3028 66.4308 36.3028C68.7745 36.1456 71.1162 36.6327 73.1637 37.7033C75.2113 38.7738 76.8741 40.3805 77.9447 42.3228L71.6155 46.0799C71.2032 45.1169 70.4854 44.2929 69.5573 43.7173C68.6291 43.1417 67.5345 42.8417 66.4185 42.8571C65.9316 42.8118 65.4399 42.8612 64.9748 43.0022C64.5096 43.1431 64.0811 43.3725 63.7167 43.6757C63.3522 43.9789 63.0598 44.3493 62.858 44.7632C62.6562 45.1771 62.5495 45.6256 62.5447 46.0799C62.5447 48.3342 64.0493 49.2485 67.5231 50.6514L69.5478 51.4571C76.4278 54.1971 80.317 56.9885 80.317 63.2656C80.317 70.0342 74.5908 73.7428 66.9016 73.7428C63.9056 73.92 60.9184 73.2884 58.3004 71.9241C55.6825 70.5599 53.5456 68.5212 52.1478 66.0542L58.7201 62.4999ZM30.1201 63.1514C31.3908 65.2456 32.5478 67.0171 35.3293 67.0171C37.9878 67.0171 39.6678 66.0514 39.6678 62.2942V36.7314H47.7631V62.3942C47.7631 70.1771 42.8401 73.7199 35.6739 73.7199C33.1408 73.8485 30.6252 73.2623 28.4576 72.0384C26.29 70.8146 24.5719 69.0103 23.5293 66.8628L30.1201 63.1514Z" fill="black"/>
</g>
</svg>
