<svg width="51" height="68" viewBox="0 0 51 68" fill="none" xmlns="http://www.w3.org/2000/svg">
<g id="Group">
<path id="Vector" d="M15.5265 65.9996C23.2733 65.9996 29.5531 56.9739 29.5531 45.8399C29.5531 34.7059 23.2733 25.6802 15.5265 25.6802C7.77981 25.6802 1.5 34.7059 1.5 45.8399C1.5 56.9739 7.77981 65.9996 15.5265 65.9996Z" stroke="#81C784" stroke-width="3"/>
<path id="Vector_2" d="M41.0251 63.4491C45.7057 63.4491 49.5001 57.9961 49.5001 51.2689C49.5001 44.5418 45.7057 39.0887 41.0251 39.0887C36.3451 39.0887 32.5508 44.5418 32.5508 51.2689C32.5508 57.9961 36.3448 63.4491 41.0251 63.4491Z" stroke="#81C784" stroke-width="3"/>
<path id="Vector_3" d="M18.2081 21.3714C21.105 21.3714 23.4535 17.996 23.4535 13.8328C23.4535 9.66907 21.105 6.2937 18.2081 6.2937C15.3111 6.2937 12.9629 9.66907 12.9629 13.8328C12.9629 17.996 15.3111 21.3714 18.2081 21.3714Z" stroke="#81C784" stroke-width="3"/>
<path id="Vector_4" d="M37.7303 34.7807C44.0285 34.7807 49.1344 27.4428 49.1344 18.3906C49.1344 9.33799 44.0285 2 37.7303 2C31.4317 2 26.3262 9.33841 26.3262 18.3906C26.3262 27.4428 31.432 34.7807 37.7303 34.7807Z" stroke="#81C784" stroke-width="3"/>
</g>
</svg>
