<svg width="88" height="80" viewBox="0 0 88 80" fill="none" xmlns="http://www.w3.org/2000/svg">
<g id="Laravel">
<path id="Vector" d="M87.0271 18.0981C87.0591 18.2048 87.0757 18.3147 87.0757 18.4252V35.597C87.0757 36.0456 86.8097 36.4599 86.3782 36.6831L70.3998 44.9811V61.4282C70.3998 61.8758 70.1361 62.289 69.7058 62.5144L36.3523 79.8333C36.2759 79.8724 36.1927 79.8974 36.1094 79.924C36.0781 79.9334 36.0486 79.9506 36.0157 79.9585C35.7825 80.0139 35.5374 80.0139 35.3043 79.9585C35.2661 79.9491 35.2314 79.9303 35.195 79.9178C35.1186 79.8927 35.0388 79.8708 34.966 79.8333L1.61938 62.5144C1.1882 62.2909 0.921875 61.8768 0.921875 61.4282V9.91286C0.921875 9.80017 0.939226 9.69062 0.970457 9.5842C0.980868 9.5482 1.00516 9.51533 1.01904 9.47934C1.04507 9.4136 1.06936 9.34631 1.10753 9.28527C1.13356 9.24458 1.17173 9.21171 1.20296 9.17415C1.24287 9.12407 1.2793 9.07242 1.32615 9.0286C1.36606 8.99261 1.41811 8.966 1.46322 8.9347C1.51354 8.89714 1.55865 8.85645 1.61591 8.82671H1.61764L18.2918 0.167259C18.7215 -0.0557531 19.2502 -0.0557531 19.6799 0.167259L36.354 8.82671H36.3575C36.413 8.85801 36.4599 8.89714 36.5102 8.93313C36.5553 8.96443 36.6056 8.99261 36.6455 9.02704C36.6941 9.07242 36.7288 9.12407 36.7704 9.17415C36.7999 9.21171 36.8398 9.24458 36.8641 9.28527C36.904 9.34787 36.9266 9.4136 36.9544 9.47934C36.9682 9.51533 36.9925 9.5482 37.0029 9.58576C37.0349 9.69241 37.0512 9.80238 37.0515 9.91286V42.0888L50.9461 34.8724V18.4236C50.9461 18.3141 50.9634 18.203 50.9947 18.0981C51.0068 18.0605 51.0294 18.0277 51.0432 17.9917C51.071 17.9259 51.0953 17.8586 51.1335 17.7976C51.1595 17.7569 51.1977 17.724 51.2272 17.6865C51.2688 17.6364 51.3035 17.5848 51.3521 17.5409C51.392 17.5049 51.4423 17.4783 51.4874 17.447C51.5395 17.4095 51.5846 17.3688 51.6401 17.339H51.6418L68.3177 8.67959C68.7473 8.45626 69.2762 8.45626 69.7058 8.67959L86.38 17.339C86.4389 17.3703 86.4841 17.4095 86.5361 17.4455C86.5795 17.4768 86.6298 17.5049 86.6697 17.5394C86.7183 17.5848 86.753 17.6364 86.7946 17.6865C86.8259 17.724 86.864 17.7569 86.8883 17.7976C86.9282 17.8586 86.9508 17.9259 86.9786 17.9917C86.9942 18.0277 87.0167 18.0605 87.0271 18.0981ZM84.2961 34.8724V20.5928L78.461 23.6227L70.3998 27.8093V42.0888L84.2979 34.8724H84.2961ZM67.622 60.7036V46.4146L59.6926 50.4994L37.0498 62.156V76.5795L67.622 60.7036ZM3.70148 12.0805V60.7036L34.2702 76.5779V62.1575L18.3005 54.0052L18.2953 54.002L18.2883 53.9989C18.2345 53.9707 18.1894 53.93 18.1391 53.8956C18.0957 53.8643 18.0454 53.8393 18.0072 53.8048L18.0038 53.8001C17.9587 53.761 17.9274 53.7125 17.8893 53.6687C17.8546 53.6264 17.8129 53.5904 17.7852 53.5466L17.7834 53.5419C17.7522 53.495 17.7331 53.4386 17.7105 53.3854C17.688 53.3384 17.6585 53.2946 17.6446 53.2445V53.243C17.6273 53.1835 17.6238 53.1209 17.6168 53.0599C17.6099 53.0129 17.596 52.966 17.596 52.919V52.9159V19.2969L9.53657 15.1088L3.70148 12.082V12.0805ZM18.9876 2.69952L5.09475 9.91286L18.9841 17.1262L32.8752 9.91129L18.9841 2.69952H18.9876ZM26.2125 47.7168L34.2719 43.5318V12.0805L28.4368 15.1104L20.3756 19.2969V50.7483L26.2125 47.7168ZM69.0118 11.2119L55.1207 18.4252L69.0118 25.6385L82.9011 18.4236L69.0118 11.2119ZM67.622 27.8093L59.5608 23.6227L53.7257 20.5928V34.8724L61.7851 39.0573L67.622 42.0888V27.8093ZM35.6583 59.9884L56.0333 49.4962L66.2183 44.2533L52.3376 37.0447L36.3558 45.3441L21.7897 52.9081L35.6583 59.9884Z" fill="#FB3A2E"/>
</g>
</svg>
