<svg width="147" height="147" viewBox="0 0 147 147" fill="none" xmlns="http://www.w3.org/2000/svg">
<g id="technology-idea-svgrepo-com 1">
<path id="Vector" d="M89.0076 123.699H57.9246C55.97 123.699 54.3828 122.114 54.3828 120.157C54.3828 118.2 55.9677 116.615 57.9246 116.615H89.0076C90.9623 116.615 92.5494 118.2 92.5494 120.157C92.5494 122.114 90.9623 123.699 89.0076 123.699Z" fill="#242323"/>
<path id="Vector_2" d="M89.0076 133.857H57.9246C55.97 133.857 54.3828 132.273 54.3828 130.316C54.3828 128.359 55.9677 126.774 57.9246 126.774H89.0076C90.9623 126.774 92.5494 128.359 92.5494 130.316C92.5494 132.273 90.9623 133.857 89.0076 133.857Z" fill="#242323"/>
<path id="Vector_3" d="M56.293 138.123C58.6771 143.277 65.4598 147 73.4644 147C81.469 147 88.2514 143.277 90.6358 138.123H56.293Z" fill="white"/>
<path id="Vector_4" d="M73.4367 29.3817C73.4406 29.3817 73.4437 29.3786 73.4437 29.3747C73.4437 29.3708 73.4406 29.3677 73.4367 29.3677C73.4328 29.3677 73.4297 29.3708 73.4297 29.3747C73.4297 29.3786 73.4328 29.3817 73.4367 29.3817Z" fill="white"/>
<path id="Vector_5" d="M73.4723 29.3767C43.0964 29.402 27.85 60.3059 41.8032 81.2209C55.0605 101.075 53.9767 112.318 53.9767 112.318H92.9678C92.9678 112.318 91.8725 101.063 105.125 81.2117C119.083 60.3058 103.837 29.402 73.4723 29.3767Z" fill="white"/>
<g id="Group">
<path id="Vector_6" d="M73.4715 29.4027C73.4805 29.4027 73.4879 29.3953 73.4879 29.3863C73.4879 29.3772 73.4805 29.3699 73.4715 29.3699C73.4624 29.3699 73.4551 29.3772 73.4551 29.3863C73.4551 29.3953 73.4624 29.4027 73.4715 29.4027Z" fill="white"/>
<path id="Vector_7" d="M73.5004 23.6044C71.5458 23.6044 69.9609 22.0196 69.9609 20.0649V3.54149C69.9609 1.58714 71.5458 0 73.5027 0C75.4574 0 77.0445 1.58484 77.0445 3.54178V20.0629C77.0468 22.0176 75.462 23.6024 73.5073 23.6047C73.5024 23.6044 73.5024 23.6044 73.5004 23.6044Z" fill="white"/>
<path id="Vector_8" d="M26.2953 77.8882H9.7742C7.81956 77.8882 6.23242 76.3034 6.23242 74.3465C6.23242 72.3918 7.81727 70.8047 9.7742 70.8047H26.2953C28.25 70.8047 29.8371 72.3895 29.8371 74.3465C29.8371 76.3034 28.25 77.8882 26.2953 77.8882Z" fill="white"/>
<path id="Vector_9" d="M137.225 77.8882H120.704C118.749 77.8882 117.162 76.3034 117.162 74.3465C117.162 72.3918 118.747 70.8047 120.704 70.8047H137.225C139.18 70.8047 140.767 72.3895 140.767 74.3465C140.765 76.3034 139.18 77.8882 137.225 77.8882Z" fill="white"/>
<path id="Vector_10" d="M35.1148 39.5081C34.1754 39.5081 33.275 39.136 32.6112 38.4699L20.9296 26.7857C19.5469 25.403 19.5469 23.1612 20.9296 21.7785C22.3123 20.3958 24.5541 20.3958 25.9368 21.7785L37.6184 33.4601C39.0011 34.8428 39.0011 37.0823 37.6207 38.465C36.9569 39.1288 36.0543 39.5032 35.1148 39.5032V39.5081Z" fill="white"/>
<path id="Vector_11" d="M111.886 39.5081C109.931 39.5081 108.346 37.9255 108.344 35.9709C108.344 35.0315 108.716 34.1288 109.382 33.465L121.064 21.7834C122.446 20.4007 124.688 20.4007 126.071 21.7834C127.453 23.1661 127.453 25.4078 126.071 26.7906L114.385 38.4653C113.723 39.1314 112.825 39.5058 111.886 39.5081Z" fill="white"/>
</g>
</g>
</svg>
