<svg width="90" height="84" viewBox="0 0 90 84" fill="none" xmlns="http://www.w3.org/2000/svg">
<g id="Mongo">
<g id="container">
<path id="mask" d="M71.3201 2H19.1424C9.76012 2 2.1543 9.06255 2.1543 17.7746V66.2254C2.1543 74.9375 9.76012 82 19.1424 82H71.3201C80.7023 82 88.3081 74.9375 88.3081 66.2254V17.7746C88.3081 9.06255 80.7023 2 71.3201 2Z" fill="white" stroke="#134514" stroke-width="3"/>
</g>
<g id="Group">
<path id="Shape" d="M46.4385 70.4261L44.8022 69.9068C44.8022 69.9068 45.0021 62.161 42.0081 61.6051C40.0129 59.4552 42.3282 -29.5698 49.5124 61.3083C49.5124 61.3083 47.0375 62.457 46.5985 64.4217C46.1193 66.3491 46.4385 70.4261 46.4385 70.4261Z" fill="#A6A385"/>
<path id="Shape_2" d="M47.3174 62.9395C47.3174 62.9395 61.6469 54.1924 58.2936 35.9942C55.0609 22.7634 47.4372 18.427 46.599 16.759C45.6812 15.573 44.8027 13.4978 44.8027 13.4978L45.4018 50.3006C45.4018 50.338 44.1639 61.5675 47.3174 62.9395Z" fill="#499D4A"/>
<path id="Shape_3" d="M43.9646 63.4209C43.9646 63.4209 30.5131 54.8964 31.3115 39.8863C32.0697 24.8759 41.5692 17.5004 43.4053 16.1661C44.603 14.9801 44.6428 14.5351 44.7228 13.3491C45.561 15.0171 45.4014 38.2927 45.5208 41.035C45.8798 51.5978 44.8824 61.42 43.9646 63.4209Z" fill="#58AA50"/>
</g>
</g>
</svg>
