<svg width="87" height="80" viewBox="0 0 87 80" fill="none" xmlns="http://www.w3.org/2000/svg">
<g id="MYSQL">
<path id="Vector" d="M84.2131 36.6211C83.9775 36.5975 83.7046 36.5818 83.4288 36.5818C82.0385 36.5818 80.7084 36.9354 79.4847 37.5796L79.5594 37.5442C79.2003 37.7406 78.6258 37.7406 78.5769 38.3652C78.7751 38.6245 78.8039 39.0527 78.9705 39.414C79.3066 40.1918 79.7202 40.8518 80.2028 41.4017L80.2115 41.4135C80.7142 41.9516 81.2169 42.4741 81.7455 42.9337C82.6791 43.7193 83.7391 44.1868 84.6526 44.9763C85.1725 45.4359 85.704 46.0212 86.2326 46.5123C86.494 46.7558 86.6635 47.1997 86.9995 47.3568V47.2586C86.8358 46.964 86.7841 46.5358 86.6232 46.2098C86.3819 45.8798 86.1435 45.5852 85.9051 45.2631C85.1926 43.9865 84.3682 42.8944 83.4432 41.9831L83.4087 41.9516C82.6417 41.2367 80.9612 40.235 80.6452 39.0291L80.5993 38.9584C81.2255 38.8366 81.7828 38.6559 82.32 38.4124L82.251 38.4399C83.0669 38.1452 83.8138 38.2081 84.6555 37.9213C85.0347 37.7878 85.4196 37.6267 85.8045 37.4617V37.1671C85.3736 36.5779 85.0519 35.7766 84.6066 35.2266C83.4317 33.8125 82.1361 32.4847 80.7716 31.2906L80.6424 31.1845C79.8897 30.5285 78.9331 30.1043 78.1403 29.5465C77.853 29.35 77.3733 29.2518 77.2067 28.9219C76.8332 28.1952 76.5029 27.3624 76.2414 26.4825L76.2185 26.3961C75.5137 24.5262 74.8587 22.6237 74.2536 20.6884C73.8399 19.1839 73.4291 17.9505 72.9666 16.7563L73.0327 16.9409C70.7748 11.7597 67.6292 7.59578 63.8747 4.75571L63.7511 4.66929C62.8635 4.06828 61.8322 3.60082 60.7492 3.33764L60.6774 3.32192C60.077 3.28264 59.4795 3.22372 58.882 3.18836C58.4626 2.81912 58.1006 2.44201 57.7617 2.02562L57.7703 2.03741C56.4058 0.858954 52.8753 -1.69436 51.8698 1.68387C51.2235 3.81295 52.8293 5.91452 53.3837 6.99477C53.8261 7.71363 54.2283 8.5189 54.5759 9.37132L54.6046 9.44989C54.7741 10.0195 54.8201 10.6048 54.9895 11.1979C55.4061 12.9735 55.8284 14.4308 56.3081 15.841L56.2334 15.5975C56.5178 16.3792 56.8137 17.0431 57.144 17.6716L57.121 17.6244C57.3135 17.9819 57.6439 18.1508 57.7214 18.74C57.4744 19.451 57.2819 20.2759 57.1756 21.1362L57.1699 21.1912C56.8596 22.4954 56.6787 23.9999 56.6787 25.5594C56.6787 27.9988 57.1182 30.2967 57.8938 32.3158L57.8651 32.2373C58.25 33.0504 59.1635 34.8574 60.3873 34.166C61.4645 33.5768 61.2261 31.7109 61.5363 30.0689C61.6081 29.6761 61.5622 29.4168 61.7087 29.1497V29.2243C62.0448 30.1475 62.3838 31.0274 62.6911 31.9505C63.5587 33.6593 64.59 35.1127 65.7677 36.3108L65.8051 36.3461C66.3796 36.9354 66.8364 37.9567 67.5545 38.3181V38.2199H67.5C67.3362 37.9763 67.1552 37.7603 66.957 37.5757L66.9455 37.5678C66.5003 36.9707 66.0866 36.3265 65.7132 35.6469L65.6902 35.6037C64.7537 33.8753 63.8632 31.9191 63.0904 29.8646L63.0071 29.625C62.6136 28.5958 62.2832 27.4842 61.9672 26.4668C61.8236 26.0739 61.8236 25.4847 61.5823 25.2883C61.1571 25.9404 60.7751 26.6671 60.4562 27.4488L60.4332 27.5117C60.0655 28.9769 59.8242 30.6699 59.761 32.4258V32.469C59.6633 32.5044 59.7122 32.469 59.6633 32.5397C58.8963 32.2844 58.6321 31.1963 58.3448 30.281C57.9541 28.8433 57.7272 27.1778 57.7272 25.4454C57.7272 24.047 57.8737 22.6957 58.1495 21.4191L58.1322 21.5212C58.3017 20.8338 59.0199 18.6654 58.7326 18.0055C58.5832 17.3809 58.1092 17.0234 57.845 16.5167C57.5318 15.9117 57.2446 15.2243 57.0061 14.4976L56.9832 14.419C56.4086 12.5846 56.1214 10.5498 55.498 8.71531C55.1217 7.75684 54.7253 6.93192 54.28 6.162L54.3001 6.19735C53.8261 5.44707 53.3895 4.61037 53.0103 3.7226L52.9787 3.64403C52.8609 3.28657 52.6914 2.69341 52.881 2.3006C52.9155 2.07276 53.0476 1.89599 53.2171 1.86064C53.5331 1.5071 54.4236 1.9667 54.7339 2.16311C55.6445 2.63449 56.4287 3.18837 57.1555 3.84044L57.1096 3.80116C57.4457 4.12327 57.8105 4.74785 58.2414 4.90891H58.7441C59.5111 5.14067 60.3786 4.97962 61.0968 5.26637C62.4154 5.87524 63.5558 6.63731 64.6101 7.57221L64.5497 7.52115C67.7212 10.3219 70.2606 14.1087 71.9784 18.5829L72.0359 18.744C72.3232 19.4982 72.4495 20.1935 72.711 20.9791C73.2137 22.5975 73.8342 24.2356 74.3455 25.799C74.831 27.4802 75.4055 28.9337 76.0892 30.2732L76.0547 30.2025C76.4138 30.8899 77.8559 31.2474 78.5022 31.6048C79.1831 31.9309 79.7289 32.2412 80.2574 32.5908L80.1511 32.5279C80.9756 33.2154 81.7799 34.001 82.5555 34.7552C82.9491 35.1284 84.147 35.9494 84.2188 36.6093L84.2131 36.6211ZM50.534 65.3479C50.534 65.4068 50.5369 65.4736 50.5369 65.5404C50.5369 67.7323 49.8216 69.6925 48.6898 71.0123L48.6812 71.0202C47.4402 72.4029 45.8401 73.2435 44.0964 73.2435C43.9614 73.2435 43.8264 73.2396 43.6942 73.2278H43.7115C41.5886 73.1885 39.6352 72.2458 38.0351 70.6706L38.0638 70.6981L38.9141 68.3608C40.1465 69.3036 41.6116 69.8889 43.1686 69.9714H43.1858C43.2634 69.9792 43.3524 69.9831 43.4443 69.9831C44.398 69.9831 45.2857 69.5746 46.0125 68.8793L45.9981 68.8911C46.656 68.2076 47.0754 67.1391 47.0754 65.9371C47.0754 65.9135 47.0754 65.8939 47.0754 65.8703V65.8743C47.0754 64.2559 46.2509 62.881 44.7485 61.7261C43.3553 60.6812 40.5745 58.5011 40.5745 58.5011C39.2014 57.3383 38.3023 55.2918 38.3023 52.9584C38.3023 52.8759 38.3023 52.7934 38.3051 52.7109V52.7227C38.3023 52.6481 38.3023 52.5617 38.3023 52.4752C38.3023 50.4522 38.9544 48.6374 39.9856 47.404L39.9914 47.3961C41.0887 46.1234 42.5222 45.3495 44.0878 45.3495C44.1883 45.3495 44.286 45.3535 44.3837 45.3574H44.3693C44.3952 45.3574 44.4268 45.3574 44.4584 45.3574C46.294 45.3574 48.0032 46.1077 49.4281 47.4L49.3936 47.3725L48.6295 49.7098C47.5063 49.0184 46.1963 48.6021 44.8175 48.5824H44.8117C44.7428 48.5746 44.6652 48.5706 44.5848 48.5706C43.7804 48.5706 43.0393 48.9556 42.459 49.5998L42.4648 49.592C41.9218 50.2087 41.5771 51.1318 41.5742 52.1649C41.5742 53.7755 42.413 55.1582 43.9643 56.3367C45.3748 57.3933 48.2244 59.6245 48.2244 59.6245C49.6263 60.7519 50.5542 62.8024 50.5542 65.1515C50.5542 65.2222 50.5542 65.2968 50.5513 65.3675V65.3558L50.534 65.3479ZM56.4862 67.4338C55.702 65.2929 55.2452 62.771 55.2452 60.1038C55.2452 59.6835 55.2567 59.2671 55.2797 58.8585L55.2768 58.9135C55.2768 52.0759 56.7964 48.6557 59.8357 48.6531C59.9104 48.6453 59.9995 48.6413 60.0914 48.6413C61.4559 48.6413 62.6538 49.6155 63.3346 51.0847L63.3432 51.1043C64.1217 53.2334 64.5785 55.7474 64.5785 58.4029C64.5785 58.8114 64.567 59.216 64.5469 59.6167L64.5497 59.5617C64.5497 66.4543 63.0301 69.9033 59.9908 69.9085C59.9133 69.9164 59.8242 69.9203 59.7352 69.9203C58.3707 69.9203 57.1699 68.9461 56.4891 67.477L56.4804 67.4573L56.4862 67.4338ZM68.3043 73.5303L64.656 71.0752C64.9893 70.6941 65.288 70.2935 65.5638 69.8614L65.5724 69.8496C67.0461 67.1313 67.9309 63.7098 67.9309 60.0095C67.9309 59.5813 67.9194 59.1571 67.8964 58.7368L67.8993 58.7918C67.8993 49.8093 65.3206 45.3155 60.1632 45.3102C60.0483 45.3024 59.9133 45.2985 59.7783 45.2985C57.5749 45.2985 55.5957 46.6223 54.2484 48.7238L54.2426 48.7356C52.7747 51.4539 51.8928 54.8714 51.8928 58.5718C51.8928 58.9882 51.9043 59.4006 51.9273 59.8092L51.9244 59.7542C51.8986 60.1509 51.8842 60.6144 51.8842 61.0819C51.8842 64.5151 52.6713 67.6969 54.01 70.3092L53.9841 70.2581C55.2739 72.1358 57.1038 73.3064 59.129 73.3064C59.3186 73.3064 59.5054 73.2946 59.6892 73.275L59.6633 73.2789C59.6892 73.2789 59.7237 73.2789 59.7553 73.2789C60.6487 73.2789 61.5133 73.1021 62.332 72.7761L62.2688 72.7997L67.026 76.5903L68.3187 73.5381L68.3043 73.5303ZM80.2201 72.8664H70.7777V45.7227H73.9548V69.5314H80.2201V72.8664ZM35.9783 52.8406C35.1538 61.0269 33.2665 68.4158 30.5059 75.0348L30.6208 74.7323C29.5148 77.6431 27.4235 79.67 24.9674 79.9961L24.9387 80C24.1947 79.945 23.5023 79.7015 22.8732 79.3047L22.9077 79.3244V76.9007C23.3013 76.9832 23.7551 77.0303 24.2176 77.0303C24.2435 77.0303 24.2693 77.0303 24.2981 77.0303C24.344 77.0342 24.3929 77.0342 24.4446 77.0342C25.2748 77.0342 26.036 76.6218 26.622 75.9343L26.6163 75.9383C27.2483 75.2273 27.6533 74.1667 27.6763 72.9725C27.5241 71.2519 27.2339 69.6807 26.8174 68.1997L26.8519 68.3333L23.2122 52.8406H26.4784L29.0897 64.4248C29.555 66.0589 29.8251 67.9523 29.8251 69.9281C29.8251 69.9321 29.8251 69.936 29.8251 69.936C31.2097 64.9786 32.2611 59.1964 32.7954 53.198L32.8212 52.8366L35.9783 52.8406ZM21.5576 72.8664H18.231C18.1372 65.636 17.8145 58.4199 17.2629 51.2182H17.2342L12.1726 72.8664H9.64178L4.61463 51.2182H4.58016C4.18756 58.4225 3.95392 65.6386 3.87923 72.8664H0.845703C1.04296 63.2162 1.53323 54.167 2.3165 45.7188H6.44451L11.2361 65.67H11.2648L16.0995 45.7188H20.0293C20.8988 55.6099 21.4111 64.6591 21.5662 72.8664H21.5576ZM59.7352 8.10252C59.7294 8.10252 59.7208 8.10252 59.7122 8.10252C59.3703 8.10252 59.04 8.16144 58.724 8.27143L58.7527 8.26357V8.32642H58.8016C59.0486 8.82923 59.3014 9.26526 59.5743 9.67379L59.5686 9.66594C59.761 10.1923 59.9276 10.7148 60.1201 11.2372L60.1689 11.1626C60.4821 10.8247 60.6803 10.3062 60.6803 9.72486C60.6803 9.65415 60.6774 9.58737 60.6716 9.51666V9.52452C60.528 9.29276 60.5079 9.06492 60.3844 8.83709C60.2408 8.50712 59.9334 8.34607 59.738 8.08681L59.7352 8.10252Z" fill="black"/>
</g>
</svg>
