<svg width="88" height="80" viewBox="0 0 88 80" fill="none" xmlns="http://www.w3.org/2000/svg">
<g id="Next">
<path id="Vector" d="M64.8595 75.0049C64.5391 75.1624 64.566 75.2124 64.873 75.0674C64.9726 75.0299 65.056 74.9774 65.1287 74.9149C65.1287 74.8624 65.1287 74.8624 64.8595 75.0049ZM65.5056 74.6799C65.3522 74.7974 65.3522 74.7974 65.5352 74.7199C65.6322 74.6674 65.7183 74.6174 65.7183 74.6024C65.7183 74.5349 65.6752 74.5499 65.5056 74.6799ZM65.9256 74.4449C65.7722 74.5624 65.7722 74.5624 65.9552 74.4849C66.0548 74.4324 66.1383 74.3774 66.1383 74.3649C66.1383 74.3024 66.0952 74.3149 65.9256 74.4449ZM66.351 74.2124C66.1975 74.3299 66.1975 74.3299 66.3752 74.2499C66.4748 74.1999 66.5583 74.1474 66.5583 74.1324C66.5583 74.0699 66.5152 74.0824 66.351 74.2124ZM66.9244 73.8599C66.631 74.0424 66.5287 74.1599 66.7979 74.0299C66.9783 73.9274 67.2852 73.7024 67.2313 73.7024C67.1156 73.7424 67.0187 73.8099 66.9217 73.8599H66.9244ZM41.1787 0.0183754C40.9822 0.0308757 40.3926 0.0808767 39.8757 0.120878C27.6314 1.1509 16.176 7.27102 8.91509 16.6987C4.90098 21.8663 2.29491 27.8689 1.31225 34.1716C0.964951 36.3716 0.921875 37.0216 0.921875 40.0042C0.921875 42.9842 0.964951 43.6243 1.31225 45.8243C3.65717 60.8521 15.1691 73.4674 30.7733 78.1425C33.5812 78.975 36.5238 79.55 39.8757 79.9025C41.1787 80.0325 46.8135 80.0325 48.1166 79.9025C53.9102 79.3025 58.802 77.975 63.6426 75.6824C64.3857 75.3324 64.5257 75.2399 64.426 75.1624C62.0569 72.2598 59.7308 69.3548 57.402 66.4247L50.518 57.792L41.8948 45.9293C39.0195 41.9592 36.1335 37.9991 33.2016 34.0691C33.172 34.0691 33.1343 39.3417 33.1182 45.7718C33.0886 57.0345 33.0886 57.492 32.9351 57.752C32.7816 58.0646 32.5286 58.3246 32.1921 58.4696C31.9255 58.5871 31.6859 58.6121 30.4125 58.6121H28.956L28.5764 58.3921C28.3395 58.2496 28.1429 58.0521 28.0164 57.8195L27.8333 57.467L27.8468 41.7892L27.8764 26.1114L28.1429 25.7989C28.3126 25.6064 28.5226 25.4489 28.7595 25.3314C29.1121 25.1739 29.2521 25.1489 30.7086 25.1489C32.4182 25.1489 32.7009 25.2114 33.1505 25.6689C36.6396 30.499 40.118 35.3416 43.5398 40.1992C49.1369 48.0793 56.7774 58.8321 60.5331 64.1072L67.3633 73.7049L67.6998 73.4974C70.9816 71.4648 73.9673 69.0448 76.5437 66.2847C81.9713 60.5146 85.4927 53.417 86.6853 45.8418C87.0326 43.6418 87.0757 42.9892 87.0757 40.0092C87.0757 37.0266 87.0326 36.3891 86.6853 34.1891C84.3404 19.1613 72.8285 6.54601 57.2243 1.86841C54.306 1.0109 51.3041 0.425884 48.2646 0.125878C47.4489 0.0483761 41.8814 -0.0441258 41.1814 0.0233755L41.1787 0.0183754ZM58.8047 24.2114C59.2112 24.3914 59.5181 24.7314 59.6581 25.1214C59.7308 25.3314 59.7443 29.679 59.7308 39.4717L59.7012 53.532L57.0386 49.7319L54.3598 45.9293V35.7216C54.3598 29.104 54.3894 25.3939 54.4271 25.2114C54.5537 24.7939 54.8606 24.4439 55.2698 24.2239C55.6036 24.0664 55.7329 24.0539 57.0655 24.0539C58.312 24.0539 58.5247 24.0664 58.8047 24.2114Z" fill="black"/>
</g>
</svg>
