<svg width="88" height="80" viewBox="0 0 88 80" fill="none" xmlns="http://www.w3.org/2000/svg">
<g id="React">
<path id="Vector" d="M51.6931 39.9258C51.6931 35.5123 48.249 31.9338 43.9999 31.9338C39.7514 31.9338 36.3066 35.5123 36.3066 39.9258C36.3066 44.34 39.7514 47.9181 43.9999 47.9181C48.249 47.9181 51.6931 44.34 51.6931 39.9258Z" fill="#53C1DE"/>
<path id="Vector_2" fill-rule="evenodd" clip-rule="evenodd" d="M68.9846 25.0883C70.6091 18.2301 72.6513 5.51224 65.4523 1.20049C58.2868 -3.09247 48.9624 5.13363 44.0387 10.0713C39.1294 5.18283 29.543 -3.0081 22.3501 1.31735C15.1875 5.6247 17.3963 18.1317 19.057 25.0329C12.3755 27.0043 0.921875 31.2505 0.921875 39.9258C0.921875 48.5766 12.3636 53.1963 19.0055 55.1658C17.3387 62.1052 15.2405 74.4335 22.4123 78.7314C29.6321 83.056 39.1885 75.06 44.1579 70.0683C49.1132 75.0351 58.348 83.0834 65.5149 78.7735C72.7041 74.4501 70.8317 61.9028 69.1709 54.9615C75.6095 52.9877 87.0757 48.4686 87.0757 39.9258C87.0757 31.3338 75.5607 27.0532 68.9846 25.0883ZM68.1684 51.2831C67.078 47.6972 65.6062 43.884 63.8059 39.9449C65.5243 36.0988 66.939 32.3348 67.999 28.772C72.8198 30.224 83.3955 33.5425 83.3955 39.9258C83.3955 46.3692 73.2469 49.7191 68.1684 51.2831ZM63.6706 75.4646C58.3233 78.68 50.3802 70.9834 46.7207 67.3258C49.1485 64.5674 51.5746 61.3606 53.9424 57.7997C58.1076 57.416 62.0423 56.7883 65.6108 55.9314C66.7796 60.8412 69.0414 72.2348 63.6706 75.4646ZM24.2512 75.4188C18.9034 72.2154 21.3477 61.2141 22.574 56.1025C26.1027 56.9135 30.0091 57.4969 34.1842 57.8486C36.5675 61.3329 39.0639 64.5357 41.5796 67.3406C38.4715 70.464 29.624 78.6369 24.2512 75.4188ZM4.60205 39.9258C4.60205 33.4585 15.1145 30.164 20.0453 28.7157C21.1235 32.3585 22.5377 36.1674 24.2444 40.0191C22.5156 43.928 21.0812 47.7972 19.993 51.4831C15.2914 50.0849 4.60205 46.3972 4.60205 39.9258ZM24.194 4.62627C29.5637 1.39741 37.8954 9.26101 41.4598 12.8004C38.9571 15.5924 36.4836 18.7711 34.1207 22.2354C30.0689 22.6255 26.1901 23.252 22.6243 24.0914C21.2865 18.5253 18.8302 7.85166 24.194 4.62627ZM56.5752 26.3911C59.3241 26.7514 61.9579 27.2308 64.4308 27.8172C63.6884 30.2892 62.7631 32.8741 61.6733 35.524C60.0935 32.4101 58.3977 29.3588 56.5752 26.3911ZM44.0399 15.5326C45.7374 17.443 47.4375 19.5763 49.11 21.8908C45.7176 21.724 42.3197 21.7234 38.9272 21.8883C40.6012 19.5953 42.3159 17.4652 44.0399 15.5326ZM26.3559 35.5212C25.2841 32.8806 24.3672 30.2843 23.6183 27.7769C26.0764 27.2055 28.6979 26.7385 31.429 26.384C29.6013 29.3452 27.9084 32.3954 26.3559 35.5212ZM31.5074 53.7406C28.6861 53.4135 26.025 52.9701 23.5676 52.4145C24.3283 49.8631 25.2654 47.2108 26.3601 44.5132C27.934 47.6717 29.6527 50.7514 31.5074 53.7406ZM44.1418 64.5892C42.3975 62.6338 40.6575 60.4711 38.9582 58.1449C42.3699 58.284 45.7882 58.2843 49.1996 58.1262C47.5219 60.4948 45.8278 62.6606 44.1418 64.5892ZM61.7083 44.376C62.8599 47.1028 63.8306 49.7406 64.6016 52.2489C62.1035 52.8412 59.4066 53.3181 56.5649 53.6723C58.4009 50.6483 60.1236 47.5495 61.7083 44.376ZM51.8885 54.1357C46.6699 54.5231 41.4188 54.5188 36.1984 54.1674C33.2322 49.6661 30.5915 44.9323 28.3122 40.0178C30.5806 35.1135 33.202 30.3889 36.1542 25.8948C41.3783 25.4846 46.6345 25.4834 51.8586 25.8972C54.7855 30.3911 57.4029 35.1034 59.7239 39.9634C57.4305 44.8652 54.7953 49.5994 51.8885 54.1357ZM63.614 4.51261C68.9851 7.73089 66.5944 19.1608 65.421 24.1311C61.8467 23.2741 57.9652 22.6366 53.9016 22.2403C51.5341 18.7386 49.0813 15.5544 46.619 12.7984C50.2292 9.1828 58.2949 1.32581 63.614 4.51261Z" fill="#53C1DE"/>
</g>
</svg>
