<svg width="87" height="80" viewBox="0 0 87 80" fill="none" xmlns="http://www.w3.org/2000/svg">
<g id="023">
<path id="Vector" d="M26.4762 77.2641C25.9928 76.1624 25.8216 74.8923 25.9899 73.6563H5.41199L35.9785 7.1121L48.8598 35.4915L52.911 31.7536L40.1907 3.47371C39.7652 2.50687 39.154 1.6843 38.4108 1.07852C37.6675 0.472743 36.8152 0.102351 35.9289 0C35.0364 0.045517 34.1725 0.401834 33.4366 1.02791C32.7007 1.65399 32.1228 2.52437 31.7694 3.53881L0.797124 70.918C0.326027 71.8625 0.0544596 72.9383 0.00737582 74.0466C-0.039708 75.1548 0.139202 76.2599 0.527665 77.2603C0.998753 78.1884 1.67137 78.9341 2.46875 79.4122C3.26613 79.8903 4.15615 80.0816 5.03722 79.9642H30.9734C30.094 80.0853 29.2049 79.8981 28.4074 79.424C27.61 78.95 26.9365 78.2081 26.4638 77.2832L26.4762 77.2641Z" fill="#00C58E"/>
<path id="Vector_2" d="M85.2864 71.0522L60.363 16.327C59.9578 15.3598 59.3621 14.5344 58.6307 13.9273C57.8993 13.3201 57.056 12.9507 56.1787 12.8533C55.3068 12.899 54.4633 13.2497 53.7462 13.8646C53.0291 14.4795 52.4678 15.3333 52.1275 16.327L48.832 22.8378V35.4764L56.1756 19.8849L80.8016 73.7752H71.4325C71.5816 74.8663 71.4494 75.9878 71.0546 76.9809L70.9741 77.18C70.4667 78.0697 69.7898 78.7909 69.0032 79.2799C68.2166 79.7689 67.3446 80.0106 66.4645 79.9835H81.1268C82.0073 80.0136 82.8801 79.7733 83.6671 79.2841C84.4541 78.7948 85.1307 78.0719 85.6363 77.18C86.0322 76.2134 86.2063 75.1312 86.1396 74.0508C86.073 72.9705 85.7683 71.9334 85.2585 71.0522H85.2864Z" fill="#108775"/>
<path id="Vector_3" d="M71.6507 77.1339L71.7313 76.9347L71.9481 76.4024C72.2124 75.5481 72.2778 74.6194 72.137 73.7215C71.9987 72.7414 71.7152 71.8014 71.3008 70.9486L51.8316 29.2029L48.8892 22.8606H48.8366L45.8664 29.1722L26.4251 70.918C26.0462 71.7694 25.7905 72.6961 25.6694 73.6564C25.4859 74.8884 25.6476 76.161 26.1278 77.2641C26.6171 78.1926 27.3054 78.9349 28.1158 79.4082C28.9262 79.8816 29.827 80.0674 30.7178 79.945H66.9801C67.887 79.9807 68.7871 79.7406 69.6015 79.2458C70.4158 78.751 71.1195 78.0166 71.6507 77.1071V77.1339ZM48.8335 35.526L66.6549 73.687H31.0121L48.8335 35.526Z" fill="#2F495E"/>
</g>
</svg>
